<?xml version="1.0"?>
<svg width="440" height="280" xmlns="http://www.w3.org/2000/svg" xmlns:svg="http://www.w3.org/2000/svg">
 <!-- Created with SVG-edit - https://github.com/SVG-Edit/svgedit-->
 <g class="layer">
  <title>Layer 1</title>
  <text fill="#00ffff" font-family="Fantasy" font-size="24" id="svg_1" stroke="#000000" stroke-width="0" text-anchor="middle" transform="matrix(6.23262 0 0 4.34468 -319.822 -107.843)" x="87.660789" xml:space="preserve" y="74.479406">RDMO</text>
  <rect fill="#0000ff" height="14" id="svg_4" stroke="#000000" stroke-dasharray="null" stroke-linecap="null" stroke-linejoin="null" stroke-width="0" width="396.999988" x="24.000012" y="100.5"/>
  <ellipse cx="-558.5" cy="-3.5" fill="#00ffff" id="svg_5" rx="1" ry="0" stroke="#000000" stroke-dasharray="null" stroke-linecap="null" stroke-linejoin="null" stroke-width="0"/>
  <path d="m216.396201,96.160381c-3.172368,0.102808 -7.815371,-1.459228 -4.571712,-4.943667c3.531457,-1.326539 -0.62766,-5.723329 2.91147,-7.79447c2.840755,-3.854745 6.701464,-7.374902 7.866542,-12.082254c-0.180933,-3.192527 -4.179833,-5.081906 -2.272006,-8.615567c-1.871733,-5.654743 -1.439164,-12.163391 1.977549,-17.246532c2.901253,-4.721209 6.423728,-9.72369 6.052232,-15.437006c-3.638733,1.448004 -7.490369,2.716671 -11.494966,2.059076c-3.764895,-0.333207 -7.141453,2.571984 -10.981801,0.992314c-3.892875,-0.770739 -6.208404,-5.731003 -3.305859,-8.630589c3.171923,-2.581946 7.832285,-2.66504 10.857351,-5.546559c3.991239,-3.150726 7.682935,-7.412237 13.183857,-7.969241c2.431285,-0.530441 3.474094,-2.858631 4.819919,-4.603397c1.11841,2.767234 3.063616,5.214195 5.991292,6.440974c5.953441,3.286231 7.435418,10.233719 9.630882,15.944908c1.623299,4.47281 2.975709,9.14275 5.694009,13.135858c0.028901,1.91643 -3.022327,2.726453 -0.961441,4.973111c1.071824,6.093281 1.117961,12.33284 1.022944,18.497331c-1.807705,3.016723 -3.454292,6.383819 -1.042876,9.845908c1.610768,4.23163 5.622324,7.006995 7.59597,11.000176c1.11566,2.067665 -2.174998,5.069535 1.924908,4.549531c3.744176,1.88772 0.720867,6.495548 -3.003014,5.155047c-13.955342,0.338173 -27.941421,0.675861 -41.895252,0.275052l0.000003,-0.000006z" fill="#0000ff" id="svg_7" stroke="#000000" stroke-dasharray="null" stroke-linecap="null" stroke-linejoin="null" stroke-width="0"/>
  <rect fill="#0000ff" height="14" id="svg_9" stroke="#000000" stroke-dasharray="null" stroke-linecap="null" stroke-linejoin="null" stroke-width="0" width="396.999988" x="26.000012" y="231.5"/>
 </g>
</svg>